<svg width="283" height="258" viewBox="0 0 283 258" fill="none" xmlns="http://www.w3.org/2000/svg">
<path d="M282.56 238.47C221.96 235.16 194.68 233.36 182.84 232.32C182.36 232.28 180.27 232.1 177.33 231.85C169.88 231.22 156.53 230.13 140.18 229.04C132.5 228.53 127.05 228.22 123.05 227.96C105.46 226.85 90.74 226.06 80.21 225.54C79.3 225.49 115.71 224.89 166.62 223.6C197.73 222.81 223.2 221.73 240.09 220.92C221.47 219.26 198.89 217.51 173.15 216.09C165.26 215.65 157.89 215.3 150.96 215C128.55 214.03 111.72 213.66 101.02 213.43C58.42 212.54 11.99 212.74 0 212.8C2.25 217.37 5.96 223.84 11.88 230.4C21.01 240.51 48.91 265.82 171.56 255.47C200.08 253.06 238.1 248.36 282.56 238.46V238.47Z" fill="url(#paint0_linear_2_31)"/>
<path d="M152.659 32.77C162.189 86.42 171.699 140.05 181.219 193.69C181.019 192.55 164.069 191.55 162.329 191.39C154.629 190.7 146.899 190.3 139.169 190.21C108.239 189.83 77.289 194.28 47.709 203.31C65.949 201.8 81.419 201.12 93.149 200.81C130.109 199.82 157.089 201.63 164.859 202.2C185.359 203.71 200.779 206 204.959 206.64C207.939 207.09 210.399 207.5 212.099 207.78C192.279 149.44 172.479 91.1 152.659 32.76V32.77ZM167.579 91.93C179.129 127.59 190.689 163.25 202.239 198.91C198.589 197.79 194.949 196.66 191.299 195.55L167.579 91.93Z" fill="#D1E0EF"/>
<path d="M146.111 0C145.421 10.79 144.741 21.58 144.051 32.37C129.781 42.88 118.371 52.94 109.711 61.22C87.8906 82.11 57.7605 111.59 41.9705 157.56C36.7005 172.91 34.2705 186.46 33.0605 196.42C42.5105 192.7 53.3406 189.03 65.4506 185.91C76.3306 183.11 86.5006 181.2 95.7106 179.89C98.5706 168.74 103.101 152.42 109.741 133.02C121.681 98.17 134.601 70.51 135.521 70.88C136.381 71.22 125.891 95.41 116.301 132.71C111.341 152.02 108.331 168.21 106.531 179.18C113.271 178.7 120.541 178.44 128.271 178.49C135.981 178.55 143.211 178.92 149.931 179.49C149.241 126.89 148.551 74.3 147.861 21.7C150.691 21.18 155.241 20.6 160.751 21.07C168.421 21.72 171.891 23.87 179.651 25.18C183.351 25.81 188.951 26.4 196.111 25.74C186.531 22.83 180.191 18.73 176.151 15.5C170.531 11 170.231 8.87001 165.761 7.32001C159.211 5.05001 153.661 7.47002 148.791 3.33002C147.421 2.16002 146.581 0.88001 146.091 0.0100098L146.111 0Z" fill="#D1E0EF"/>
<defs>
<linearGradient id="paint0_linear_2_31" x1="141.28" y1="212.75" x2="141.28" y2="257.92" gradientUnits="userSpaceOnUse">
<stop stop-color="#D1E0EF"/>
<stop offset="1" stop-color="#B6D6F7"/>
</linearGradient>
</defs>
</svg>
